<svg viewBox="0 0 200 200" fill="none" xmlns="http://www.w3.org/2000/svg"><path d="M97.055 166.183c43.219 0 78.254-35.035 78.254-78.253 0-43.219-35.035-78.254-78.254-78.254-43.218 0-78.253 35.035-78.253 78.254 0 43.218 35.035 78.253 78.254 78.253z" fill="#C4EED0"/><path d="M106.729 143.417v38.802M59.91 143.417l-5.756 38.802" stroke="#1F1F1F" stroke-linecap="round" stroke-linejoin="round"/><path d="M163.878 169.791c5.541-6.176 7.637-6.793 9.361-5.869 1.724.924.37 4.865-4.445 10.161-4.814 5.297-8.175 7.33-9.79 6.097-1.615-1.234-.415-4.497 4.874-10.389z" fill="#1F1F1F" stroke="#1F1F1F" stroke-linecap="round" stroke-linejoin="round"/><path d="M163.878 169.791c5.54-6.176 7.637-6.793 9.361-5.869l-51.174-36.026-15.336 12.38 52.284 39.904c-1.615-1.234-.424-4.496 4.865-10.389z" fill="#C2E7FF" stroke="#1F1F1F" stroke-linecap="round" stroke-linejoin="round"/><path d="M19.876 100.924a78.892 78.892 0 0 1-1.074-12.996c0-43.219 35.035-78.252 78.254-78.252a77.903 77.903 0 0 1 37.198 9.389" stroke="#1F1F1F" stroke-linecap="round" stroke-linejoin="round"/><path d="M66.66 86.943l-1.053 5.826a21.23 21.23 0 0 1 4.728-.893 30.14 30.14 0 0 1 5.672.108l-1.053-3.865s2.505.081 3.448-1.519c.926-1.57.616-4.31.616-4.68l1.41-.947a.768.768 0 0 0-.019-1.297c-.85-.533-1.928-1.231-2.17-1.666-.406-.719-.541-2.393-1.93-3.9-1.93-2.093-4.763-2.134-7.222-1.272-2.46.86-4.844 2.833-4.598 6.159.185 2.407 1.318 5 1.94 6.252.258.525.338 1.12.23 1.694z" fill="#F2D9C4" stroke="#1F1F1F" stroke-linecap="round" stroke-linejoin="round"/><path d="M95.954 161.767c2.222-1.985 5.444-1.085 9.191 2.3 2.338 2.115 4.707 4.343 6.47 5.857 3.12 2.682 4.702 6.008 3.059 7.732-1.642 1.724-3.148 1.468-6.917 0-3.546-1.378-8.101-4.776-10.701-7.732-2.6-2.955-3.134-6.34-1.102-8.157z" fill="#1F1F1F" stroke="#1F1F1F" stroke-linecap="round" stroke-linejoin="round"/><path d="M145.157 133.993c-1.724-6.465-9.237-8.313-15.272-8.313H95.091s-1.417 4.064-5.297 5.913c-.201.096-.407.185-.613.27.686 3.148 1.261 5.741 1.506 6.75.667 2.778 2.337 4.802 5.511 4.802h20.261l-20.505 18.352c2.222-1.986 5.444-1.085 9.19 2.3 2.339 2.115 4.708 4.342 6.471 5.857 3.016 2.593 4.592 5.785 3.213 7.552l13.935-16.232v.026l.798-.963 2.289-2.666v-.078c2.835-3.394 5.311-6.317 6.654-7.804 4.62-5.113 8.377-9.298 6.653-15.766z" fill="#C2E7FF" stroke="#1F1F1F" stroke-linecap="round" stroke-linejoin="round"/><path d="M95.09 125.68l-2.222-5.358s2.593 2.71 4.804 4.619c.304.261.619.509.947.741h10.024a47732.78 47732.78 0 0 1 18.233-9.976l-3.148-9.422-19.03 6.279s-6.466-7.389-10.9-11.824c-5.457-5.457-13.487-9.605-23.463-8.867-9.976.74-16.11 8.041-16.626 11.454-.026.169-.05.343-.07.519l27.092-.087c2.941 0 4.11 6.035 5.112 11.761.637 3.639 2.15 10.853 3.333 16.344.206-.085.411-.174.613-.27 3.885-1.848 5.302-5.913 5.302-5.913z" fill="#fff" stroke="#1F1F1F" stroke-linecap="round" stroke-linejoin="round"/><path d="M88.594 129.129c-.033-.152-.064-.305-.098-.457.034.152.065.307.099.457zM88.467 128.533l-.082-.382M88.346 127.973c-.022-.108-.044-.217-.068-.325.024.108.046.221.068.325zM88.217 127.354l.014.07M88.72 129.72c-.037-.185-.074-.352-.113-.53.036.182.076.358.113.53zM88.828 130.208c-.032-.137-.061-.278-.09-.417.027.139.056.28.09.417zM88.935 130.717l-.067-.304M89.167 131.795a38.216 38.216 0 0 0-.085-.397M89.046 131.235a24.551 24.551 0 0 0-.074-.34l.074.34zM92.874 120.323l-4.657-5.047" stroke="#1F1F1F" stroke-linecap="round" stroke-linejoin="round"/><path d="M141.593 102.583c-3.976.174-7.276.458-9.706 1.174-2.131.628-4.868 1.387-8.118 2.552l1.774 5.324 16.466-7.27a.93.93 0 0 0 .549-1.067.932.932 0 0 0-.965-.713z" fill="#F2D9C4" stroke="#1F1F1F" stroke-linecap="round" stroke-linejoin="round"/><path d="M66.456 87.993l4.122-.599a1.706 1.706 0 0 0 1.35-1.557c.037-.574.07-1.213.07-1.622 0-.37-1.852-1.067-2.34-2.75a2.53 2.53 0 0 1 .657-2.628c.74-.74 2.176-.698 2.75.082.574.78.985 1.231 1.561.944.576-.287.574-1.15.533-2.094-.04-.945.411-1.725 1.56-2.052 1.148-.328 2.509-1.297 3.08-2.547.41-.901-.017-2.342-1.354-2.592-1.337-.25-2.054.452-2.711.246-.658-.205-.782-.953-.986-2.257-.203-1.304-1.231-2.135-2.592-1.972-1.297.157-2.015.992-2.506 2.34-.328.904-.74 1.89-1.805 2.011-1.065.123-1.765-.985-3.367-.86-1.602.123-2.874 1.11-2.996 2.79-.123 1.65.82 2.176 1.394 3.49.574 1.316.043 2.093-1.19 2.915-1.234.823-1.064 2.543-.45 3.243.86.985 1.973 1.08 3.036 1.519 1.191.492 2.054 1.481 2.176 2.222a7.19 7.19 0 0 1 .008 1.728z" fill="#C99069" stroke="#1F1F1F" stroke-linecap="round" stroke-linejoin="round"/><path d="M24.704 63.235a7.389 7.389 0 1 0 0-14.778 7.389 7.389 0 0 0 0 14.778z" fill="#FFBB29" stroke="#1F1F1F" stroke-linecap="round" stroke-linejoin="round"/><path d="M174.423 24.524l-.002-.001c-4.473-4.473-11.725-4.473-16.198 0l-9.298 9.298c-4.473 4.473-4.473 11.725 0 16.198l.001.002c4.473 4.472 11.725 4.472 16.198 0l9.299-9.299c4.472-4.473 4.473-11.725 0-16.198z" fill="#1EA446" stroke="#1EA446" stroke-linecap="round" stroke-linejoin="round"/><path d="M40.59 21.017h25.725s-4.834 20.068 9.933 32.516H49.62s-6.442-5.296-8.659-14.78c-2.083-8.918-.37-17.736-.37-17.736zM137.756 66.581h23.031c2.222 17.917-5.667 26.726-5.667 26.726h-24.996c6.03-6.896 7.632-10.715 7.632-26.726z" fill="#fff" stroke="#1F1F1F" stroke-linecap="round" stroke-linejoin="round"/><path d="M118.394 62.743h-27.75c-1.337 0-2.081-1.093-1.655-2.428l5.95-18.667c.426-1.335 1.867-2.43 3.202-2.43h27.746c1.337 0 2.082 1.095 1.656 2.43l-5.937 18.667c-.436 1.335-1.876 2.428-3.212 2.428z" fill="#1F1F1F" stroke="#1F1F1F" stroke-linecap="round" stroke-linejoin="round"/><path d="M102.791 42.669c-1.41 0-2.898-1.154-3.306-2.563l-.185-.643c-.352-1.209-1.617-2.19-2.828-2.19h-13.23c-1.409 0-2.222 1.151-1.818 2.56l5.902 20.349c.41 1.41 1.898 2.56 3.307 2.56h27.639c1.409 0 2.222-1.15 1.821-2.56l-4.445-15.32c-.352-1.212-1.618-2.193-2.83-2.193h-10.027zM114.981 179.339c-2.051-1.068-3.859-3.203-3.613-5 .091-.663.926-1.681 1.949-2.703a15.367 15.367 0 0 0-1.702-1.702c-1.763-1.515-4.132-3.743-6.471-5.858a18.056 18.056 0 0 0-2.888-2.176c-3.48 3.291-9.836 9.26-11.25 10.386-1.97 1.561-2.441 3.363-2.138 5.2.313 1.896 1.386 4.74 1.386 4.74h27.931a9.203 9.203 0 0 0-3.204-2.887z" fill="#fff" stroke="#1F1F1F" stroke-linecap="round" stroke-linejoin="round"/><path d="M95.74 173.509c-1.1-1.126-3.051-2.259-4.657-1.296-.026.02-.053.044-.078.061-1.97 1.561-2.44 3.363-2.136 5.2.312 1.896 1.385 4.741 1.385 4.741h13.574c-2.345-2.565-6.361-6.939-8.087-8.706zM187.161 161.286a61.646 61.646 0 0 1-7.267 4.22c-3.079 1.52-6.887 2.856-9.729 1.926a23.842 23.842 0 0 1-2.832-1.195c-.977.9-2.113 2.063-3.45 3.554-1.95 2.172-3.333 3.985-4.24 5.474l9.166 6.947h6.504s11.726-17.371 13.45-19.404c1.724-2.034-.006-2.643-1.602-1.522z" fill="#fff" stroke="#1F1F1F" stroke-linecap="round" stroke-linejoin="round"/><path d="M10.417 177.476c0-7.211 3.448-13.615 12.685-18.789 9.237-5.174 16.028-7.222 22.848-8.048 11.761-1.435 21.737 4.477 19.644 13.961-2.092 9.483-7.335 17.616-7.335 17.616H20.252c-2.722 2.58 14.88 3.334 24.86 3.771 4.444.185 3.773 3.283 1.066 3.939-3.815.926-21.757.583-27.376-1.68-6.017-2.415-8.385-6.055-8.385-10.77z" fill="#FFBB29" stroke="#1F1F1F" stroke-linecap="round" stroke-linejoin="round"/><path d="M180.998 182.219H27.044" stroke="#1F1F1F" stroke-linecap="round" stroke-linejoin="round"/><path d="M18.802 165.052s3.807-3.417 8.489-3.983c4.681-.567 5.483 2.376 5.172 5.113-.411 3.609-2.674 6.539-2.674 6.539" fill="#FFBB29"/><path d="M18.802 165.052s3.807-3.417 8.489-3.983c4.681-.567 5.483 2.376 5.172 5.113-.411 3.609-2.674 6.539-2.674 6.539" stroke="#1F1F1F" stroke-linecap="round" stroke-linejoin="round"/><path d="M45.64 171.85s4.804 6.052 8.499 7.53c3.694 1.477 4.557-2.593 3.572-5.174-.985-2.582-4.444-9.282-6.404-11.393-2.546-2.73-5.714-2.241-8.857-.515-3.143 1.726-6.169 6.367-7.778 7.493-1.61 1.126-7.513 4.415-9.73 5.646-2.216 1.232-2.725 3.148-1.153 4.743 1.276 1.296 5.104 1.909 8.731 1.17 3.628-.739 4.861-1.667 7.448-2.494 2.587-.828 4.845-1.324 4.845-1.324" fill="#FFBB29"/><path d="M45.64 171.85s4.804 6.052 8.499 7.53c3.694 1.477 4.557-2.593 3.572-5.174-.985-2.582-4.444-9.282-6.404-11.393-2.546-2.73-5.714-2.241-8.857-.515-3.143 1.726-6.169 6.367-7.778 7.493-1.61 1.126-7.513 4.415-9.73 5.646-2.216 1.232-2.725 3.148-1.153 4.743 1.276 1.296 5.104 1.909 8.731 1.17 3.628-.739 4.861-1.667 7.448-2.494 2.587-.828 4.845-1.324 4.845-1.324" stroke="#1F1F1F" stroke-linecap="round" stroke-linejoin="round"/><path d="M36.363 181.965s.25-1.817 2.522-2.73l-2.522 2.73z" fill="#FFBB29"/><path d="M36.363 181.965s.25-1.817 2.522-2.73" stroke="#1F1F1F" stroke-linecap="round" stroke-linejoin="round"/><path d="M23.643 180.02a5.185 5.185 0 0 0 1.296-1.667c.74-1.435 0-2.915 0-2.915-2.133 1.191-2.68 3.021-1.296 4.582z" fill="#1F1F1F" stroke="#1F1F1F" stroke-linecap="round" stroke-linejoin="round"/><path d="M40.735 170.759c.283 0 .513-.304.513-.678 0-.374-.23-.678-.513-.678-.283 0-.513.304-.513.678 0 .374.23.678.513.678z" fill="#1F1F1F"/><path d="M90.68 138.609c-.669-2.778-3.843-17.367-4.845-23.094a809.951 809.951 0 0 1-1.481-8.776 3.552 3.552 0 0 0-3.519-2.976l-31.481.098a3.555 3.555 0 0 0-3.482 4.235c.424 2.194.943 4.932 1.378 7.419 1.002 5.727 4.174 20.322 4.843 23.094.668 2.772 2.33 4.815 5.501 4.815h38.604c-3.174 0-4.844-2.037-5.518-4.815z" fill="#fff" stroke="#1F1F1F" stroke-linecap="round" stroke-linejoin="round"/><path d="M88.972 143.417L86.2 182.219M116.461 143.416l3.448-3.263" stroke="#1F1F1F" stroke-linecap="round" stroke-linejoin="round"/></svg>
